<?xml version="1.0" encoding="UTF-8"?>
<svg id="Capa_2" data-name="Capa 2" xmlns="http://www.w3.org/2000/svg" viewBox="0 0 471.83 508.19">
  <defs>
    <style>
      .cls-1 {
        fill: #102233;
      }

      .cls-1, .cls-2, .cls-3, .cls-4, .cls-5, .cls-6, .cls-7, .cls-8, .cls-9, .cls-10, .cls-11, .cls-12, .cls-13, .cls-14, .cls-15, .cls-16, .cls-17, .cls-18, .cls-19, .cls-20, .cls-21, .cls-22, .cls-23, .cls-24, .cls-25, .cls-26, .cls-27, .cls-28, .cls-29, .cls-30, .cls-31, .cls-32, .cls-33, .cls-34, .cls-35, .cls-36, .cls-37, .cls-38, .cls-39, .cls-40, .cls-41, .cls-42, .cls-43, .cls-44, .cls-45, .cls-46, .cls-47, .cls-48, .cls-49, .cls-50, .cls-51, .cls-52, .cls-53, .cls-54, .cls-55, .cls-56, .cls-57, .cls-58 {
        stroke-width: 0px;
      }

      .cls-2 {
        fill: #fcfdfc;
      }

      .cls-3 {
        fill: #112334;
      }

      .cls-4 {
        fill: #fafcfc;
      }

      .cls-5 {
        fill: #fdfdfe;
      }

      .cls-6 {
        fill: #f2f4f7;
      }

      .cls-7 {
        fill: #e6eff5;
      }

      .cls-8 {
        fill: #fbfdfc;
      }

      .cls-9 {
        fill: #f8fafb;
      }

      .cls-10 {
        fill: #10293e;
      }

      .cls-11 {
        fill: #f3f8f9;
      }

      .cls-12 {
        fill: #f9fcfc;
      }

      .cls-13 {
        fill: #f9fbfa;
      }

      .cls-14 {
        fill: #fcfdfd;
      }

      .cls-15 {
        fill: #f9fbfb;
      }

      .cls-16 {
        fill: #f7fbfc;
      }

      .cls-17 {
        fill: #e9f4f8;
      }

      .cls-18 {
        fill: #eef7fa;
      }

      .cls-19 {
        fill: #ebf5f8;
      }

      .cls-20 {
        fill: #d0e0ea;
      }

      .cls-21 {
        fill: #fbfdfd;
      }

      .cls-22 {
        fill: #f3f8fa;
      }

      .cls-23 {
        fill: #ddecf1;
      }

      .cls-24 {
        fill: #eff2f4;
      }

      .cls-25 {
        fill: #0d2134;
      }

      .cls-26 {
        fill: #ebf4f7;
      }

      .cls-27 {
        fill: #102438;
      }

      .cls-28 {
        fill: #0c1d2e;
      }

      .cls-29 {
        fill: #ecf5f7;
      }

      .cls-30 {
        fill: #d8e5ed;
      }

      .cls-31 {
        fill: #112333;
      }

      .cls-32 {
        fill: #112335;
      }

      .cls-33 {
        fill: #f2f4f3;
      }

      .cls-34 {
        fill: #192b37;
      }

      .cls-35 {
        fill: #112537;
      }

      .cls-36 {
        fill: #eaf5fa;
      }

      .cls-37 {
        fill: #102437;
      }

      .cls-38 {
        fill: #f6f8f8;
      }

      .cls-39 {
        fill: #121b24;
      }

      .cls-40 {
        fill: #fbfcfb;
      }

      .cls-41 {
        fill: #102235;
      }

      .cls-42 {
        fill: #f1f6f7;
      }

      .cls-43 {
        fill: #f2f4f4;
      }

      .cls-44 {
        fill: #0e2032;
      }

      .cls-45 {
        fill: #162e48;
      }

      .cls-46 {
        fill: #102234;
      }

      .cls-47 {
        fill: #0f2234;
      }

      .cls-48 {
        fill: #fbfcfc;
      }

      .cls-49 {
        fill: #11283c;
      }

      .cls-50 {
        fill: #0e1e2f;
      }

      .cls-51 {
        fill: #f9fbfc;
      }

      .cls-52 {
        fill: #fcfcfc;
      }

      .cls-53 {
        fill: #eaf2f6;
      }

      .cls-54 {
        fill: #f1f4f5;
      }

      .cls-55 {
        fill: #f3f9fa;
      }

      .cls-56 {
        fill: #f6f8fb;
      }

      .cls-57 {
        fill: #f5fafb;
      }

      .cls-58 {
        fill: #f3f5f6;
      }
    </style>
  </defs>
  <g id="Capa_1-2" data-name="Capa 1">
    <path class="cls-49" d="M408.19,134.05c.18.55.37,1.1.55,1.65-.44,3.2.98,6.12,1.78,9.02,2.27,8.19,3.11,16.59,4.29,24.93.4,2.83-.27,5.71-.53,8.56-.22,2.41-1.64,4.32-3.98,4.96-2.44.67-3.59-1.41-4.53-3.12-1.66-3.02-4.44-5.45-4.74-9.21-.12-1.47-1.5-1.9-2.68-2.29-6.6-2.17-13.3-3.36-20.24-1.98-1.23.24-2.39.58-3.51,1.22-6.35,3.63-10.96,2.79-15.52-2.71-.24-.29-.68-.03-1.04.05-1.33-.41-2.74-.69-3.35-2.18.45-1.85-1.26-1.38-1.82-1.31-4.36.55-8.64-.77-12.97-.46-.62.04-1.26.02-1.84-.2-1.7-.66-3.35-1.93-5.26-.71-2.47,1.57-5.31,2.73-6.62,5.67-.48,1.26-1.27,2.17-2.69,2.37-1.75-.41-2.67.89-3.16,2.05-1.61,3.8-4.34,7.22-4.13,11.68.05.99-.06,2-.24,2.98-.34,1.89-1.93,2.43-3.35,2.32-1.53-.12-1.03-1.69-.97-2.75.14-2.3,1.07-4.81-2.12-5.98-.69-.25-.45-1.03-.16-1.63.5-1.04,2.11-1.96.99-3.24-1.17-1.34-2.85-1.99-4.74-1.64-.37.07-.72.21-1.08.3-3.07.09-5.91.88-8.41,2.73-2.48.75-4.89,1.81-7.53,1.93-1.41.06-2.82-.12-3.55-1.51-.82-1.56.59-2.41,1.27-3.54,1.15-1.92,4.04-1.99,4.57-4.48,1.94-2.15,4.48-2.93,7.26-3.14,1.73.4,3.31.4,4.1-1.61,1.18-1.91,3.4-1.54,5.07-2.36.27-.13.71-.28.2-.65-.19-.13-.45-.15-.7-.2-2.45-.78-4.86-1.31-7.32.06-.7.39-.59.93-.76,1.46-.77.97-1.83.95-2.91.84-1.33-.39-2.67-.54-4.05-.3-1.69.29-3.02-.18-3.45-1.97-.44-1.84.64-2.77,2.28-3.21,1.08-.3,2.06-.9,3.1-1.25,1.39-.47,1.22-1.63,1.57-2.59,3-.66,6.06-.94,9.05-1.65,1.94.92,3.36.24,4.43-1.47.41-.58,1.02-.84,1.67-1.03,4.91-1.37,6.75-4.94,6.95-9.69.7-3.46,1.02-7.05,3.33-9.98.29.01.59.15.54.31-.15.47.03.85.04.37.11-5.56,2.63-10.8,2.2-16.43.44-2.37-.41-3.37-2.95-3.29-10.68.32-20.93,2.28-30.31,7.69-1.67.74-3.22.95-4.21-1.05-.97-1.02-1.79-.12-2.72.24.99.33,1.73-1.24,2.71-.26.45.97,1.22,1.82,1.13,3-.24,1.43-1.32,2.32-2.15,3.38-3.12,4-5.99,8.14-6.92,13.29-.19,1.07-.35,2.23-1.47,2.83-1.79,3.16-.97,6.54-.82,9.86.04.86.44,1.68.51,2.56.32,3.69-.64,4.55-4.1,3.3-1.9-.69-2.73-.47-2.95,1.69-.19,1.93-1.52,2.86-3.44,2.54-1.83-.31-1.79-1.76-2.16-3.33-1.28-5.41,2.5-9.73,2.81-14.79.13-2.2.17-4.48.64-6.67.03-.13.04-.35,0-.36-.55-.2-.29.5-.63.59-2.07-.03-1.8-1.82-2.06-2.97-1.24-5.47-4.53-9.95-6.93-14.87-.61-1.24-1.31-1.73-2.53-.54-7.15,6.94-13.68,14.21-14.86,24.77-.37,3.29.99,6.4.58,9.65-.87,2.22-1.88,4.87-4.68,4.32-2.81-.54-2.05-3.52-2.29-5.62-.09-.82.07-1.69.07-2.54-.08.7.1,1.44-.32,2.1-2.01-.18-1.85-1.86-1.85-3.09,0-5.25-1.16-10.37-1.56-15.58-.07-.5-.73-.06-.25-.18.16-.04.25.05.24.28-.13,6.86-1.24,13.64-1.82,20.46-.47,5.59-.96,11.21-1.05,16.78-.18,11.84-1.39,23.66-.95,35.52.07,1.91.73,4.88-1.29,5.38-2,.5-2.07-2.6-2.87-4.14-12.14-23.54-31.38-37.24-57.4-41.55-4.9-.81-9.87-1.18-12.68-2.24,4.36,1.86,11.24,2.83,16.91,6.83.07,1.51.52,2.8,1.85,3.74,1.11.79,1.99,1.83,2.39,3.19.32,1.1.45,2.22-.52,3.07-.86.76-1.88.56-2.75.03-1.36-.83-2.75-.93-4.23-.52-3.24-1.44-6.15-3.75-10.12-3.11-2.5.4-4.91.79-7.03,2.37,1.03,1.11,2.36,2.01,2.07,3.77-.77,4.58.16,6.08,3.85,6.27.94.05,1.38-.37,1.47-1.25.02-.9-.64-1.56-.83-2.37-.46-1.96,0-3.17,2.37-2.61,1.82,1.96,4.1,1.19,6.28,1.09,3.63-.17,7.17-.09,8.94,3.96-4.17.44-6.77,2.94-8.57,6.51-1.63.97-3.13-.28-4.7-.26-1.54.02-3.11-.08-2.48,2.42,1.01,4.03.91,4.05-3.22,4.12-3.06-.78-4.28-3.8-6.64-5.44-1.06-.74-1.68-2.14-3.26-2.09-1.88-1.45-1.66-3.52-1.33-5.43.23-1.29-.02-2.07-1.08-2.7-.65-4.76-2.03-9.03-5.43-12.8-5.79-6.44-13.11-7.15-20.9-6.6-2.85.2-5.7.62-8.54,1.07-1.98.31-2.35,1.19-1.71,3.12,1.09,3.3,3.58,6.05,3.7,9.7-2.88,4.24-6.72,5.19-10.78,2.08-2.48-1.9-4.54-2.42-7.47-1.2-3.46,1.45-6.15-.23-6.95-3.92-.42-1.94-.24-4.02-3.15-4.21-2.73-.18-4.48.5-5.32,3.37-.56,1.9-2.33,2.85-4.24,3.32-2.22.55-4.12,1.76-6.06,2.88-.92.53-1.54,1.29-1.35,2.44.22,1.3,1.29,1.38,2.28,1.5,1.36.16,2.75,0,4.09.34,1.47.38,2.47,1.24,2.53,2.84.07,1.72-1.1,2.33-2.56,2.69-1.14.28-3.12-.37-2.55,2.06.25,1.13.71,2.25.2,3.42-2.7.83-4.87,2.08-6.85,4.4-2.84,3.32-11.15.18-12.52-4.01-2.97-9.15-1.22-18.36-.85-27.56.03-.63.18-1.21-.22-1.77-.09-1.6-.19-3.2.64-4.67.09.08.19.14.26.23.04.05.05.14.07.21.21-2.34,1.18-4.61.61-7.01,3.26-19.15,9.68-37.24,18.75-54.36,7.13-13.46,15.34-26.21,26.04-37.19,1.48,1.47,1.74,2.15.11,3.54-2.82,2.4-2.47,3.87.8,5.17.65.26,1.48.67,1.35,1.56-.13.87-1.02,1.03-1.74,1.16-1.46.28-2.95.77-4.39.03-1.02-.52-2.01-1.26-2.84.2-.86,1.52-1.85,3.04-1.07,4.9.49,1.15,1.5.55,2.3.55,5.48,0,10.96-.48,16.42.44,3.1.52,3.13-1.42,2.98-3.67-.24-3.61.96-5.75,3.41-5.46,3.41.4,6.93,1,8.8,4.68,1.79,3.51,2.74,3.55,5.77.56-.48-1.3-2.34-.95-2.78-2.14-1.81-4.94-5.22-7.58-10.54-7.74-.69-.02-1.49-.6-1.24-1.54.36-1.36,1.41-2.17,2.75-2.13,2.24.06,4.43.54,6.45,1.6,4.42,4.91,8.09,10.53,13.72,14.27.66.44,1.15.14,1.59-.37,1.69-1.99,3.28-3.12,5.02.06.62,1.14,2.11,1.17,3.34,1.39,5.28.92,10.57,1.74,15.95,1.42,3.46-.2,6.08.79,7.33,4.35.49,1.41,1.36,2.58,2.91.77,1.99-2.33,2.23-.34,2.68,1.12.15,1.99.11,3.99.06,5.98-.26,9.9,4.25,16.87,13.42,21.59-5.27-7.49-6.61-15.22-4.31-23.59.83-3.02,1.84-3.57,4.43-1.84,4.55,3.04,7.3,7.41,8.68,12.66.53,2.02.86,4.1,1.39,6.15,2.79-6.37,2.9-12.64-.6-18.81-.91-1.61-2.42-2.88-2.74-4.83,2.94-4.1,8.06-5.68,12.34-3.82,1.94.85,2.19,3.58.5,5.39-.62.66-1.41,1-2.23,1.32-.78.3-1.84.45-1.61,1.68.15.83.84,1.2,1.61,1.35.95.19,2.07-.07,2.15-.99.5-5.48,5.75-9.07,5.78-14.72,0-.92-.27-2.24,1.04-2.49,1.22-.23,2.26.56,2.61,1.68.27.85,1.01,1.41,1.12,2.3-1.89,5.25-4.09,10.36-3.91,16.18.35,11.48,5.61,19.84,15.39,25.6,2.45,1.44,4.71,1.35,6.95-.3,4.88-3.61,8.93-7.91,11.28-13.63.65-1.58,1.02-3.39,2.8-4.24,1.58.6,3.6,2.54,3.57-1.34-.02-1.9.34-4,2.44-4.51,2.32-.56,4.9-.94,6.71,1.47.71,4.27.53,8.75,3.05,12.92.78-.85.62-1.86.78-2.71,1.11-5.81,3.58-10.91,7.94-14.98,3.36-3.13,4.94-2.62,6.11,1.78,1.64,6.18,1.12,12.11-1.83,17.82-.78,1.51-1.71,2.97-2.43,4.79,8.86-3.99,14.19-14.17,12.96-23.96-.54-4.33-1.86-8.55-1.82-12.96.38-1.62,1.43-2.28,3.03-1.97,1.56.31,2.2,1.48,2.44,2.93.12.74.06,1.49.11,2.23.11,1.57.6,2.55,2.24,1.18,2.58-2.16,5.26-1.78,7.98-.37,1.72.89,3.55,1,5.43,1.04,2.02.04,3.42-.47,4.39-2.58,1.32-2.86,3.52-2.92,5.43-.49,3.36,4.28,6.89,4.18,10.26-.32,1.11-1.82,2.05-3.82,4.47-4.25.83.05,1.44.45,1.84,1.18,1.49,5.03,4.97,6.83,9.8,4.96,2.13-.83,4.14-.74,6.1.38,1.7.98,3.16.56,4.9-.19,6.2-2.65,12.63-4.14,19.43-2.72.76.16,1.69.42,1.88,1.07,1.37,4.65,6.62,7.07,6.84,12.48.12,3.08,1.63,3.51,4.13,1.65.61-.46,1.17-.91,1.99-.88,1.46.06,2.37,1.03,3.29,1.98,1.94,3.76,3.89,7.53,5.83,11.29.91,4.62,3.21,8.64,5.45,12.69,1.19,3.27,2.38,6.53,3.57,9.8-.32,1.97.56,3.56,1.57,5.12Z"/>
    <path class="cls-45" d="M215.47,75.84c-1.79-.43-1.1-3.23-3.26-3.23-.32,3.98-.53,8.05-4.18,10.99-1.69,1.36-.84,3.77-1.39,5.67-.57,1.97-1.56,2.31-3.22,2.14-1.95-.21-3.42-1.16-3.58-3.18-.15-1.94,1.48-1.9,2.88-2.09,2.07-.28,3.16-1.6,2.85-3.65-.35-2.37-2.13-1.52-3.52-1.2-.74.17-1.52.55-2.15.03-1.56-1.3-2.66-1.03-3.5.76-.7,1.49-2.64.65-3.5,1.85-1.28.5-2.15-.37-3-1.01-3.72-2.8-8.19-4.09-12.24-6.21-1.96-1.02-2.99-.45-3.38,1.7-.35,1.95-.7,3.9-1.2,5.82-.3,1.15-.24,2.56-1.79,2.97-.08-.49-.15-.98-.23-1.47-.68,1.23-1.11,2.7-2.96,2.65-2.3-.07-2.33-2.07-2.73-3.48-.71-2.52-2.26-3.39-4.71-3.22-6.25.42-12.38-.61-18.53-1.48-2.33-.33-3.96-1.26-4.23-3.88-1.25,1.67-3.26,2.4-3.89,4.43-.98-.6-.19-1.94-1.34-2.16-1.81-5.63-6.94-8.7-10.21-13.21-.83-1.15-1.89-1.48-3.21-.92-2.74.11-5.55-3.09-8.83.46,2.46.1,4.13,1.06,6.19.77,2.2-.31,3.24,1.48,4.14,3.15,1.2,2.22,1.36,5.34,4.97,5.45.42.01,1.46.93.62,1.69-1.44,1.31-2.18,3.92-4.78,3.25-1.45-.37-3.01-.87-3.26-3.03-.26-2.23-6.43-5.62-8.56-4.84-1.74.64-2.17,2.01-1.9,3.9.84,5.97.47,5.9-5.5,5.24-5.86-.64-11.84-.87-17.79.33-1.14-3.07-.69-6.09,1.71-8.77.53-.6,1.26-1.95,1.9-.7,1.8,3.46,4.33.61,6.5.91-.87-.41-1.77-.79-2.61-1.25-3.58-1.94-3.62-2.51-.45-5.05,1.22-.98,2.85-1.83,1.47-3.82.79-1.62,3.08-1.85,3.54-3.79,1.79-1.23,3.71-2.33,4.52-4.54,7.76-8.39,16.83-15.25,26.24-21.6,23.52-15.87,49.29-26.18,77.43-30.25,40.46-5.85,78.52,1.45,114.26,21.14,14.28,7.87,27.41,17.35,39.19,28.65.44.42.8.93,1.19,1.4-.1,2.06,1.96,1.99,2.94,2.99,1.25,1.27,2.49,2.53,3.74,3.8,3.25,6.5,9.26,10.73,13.55,16.37,1.14.75,1.7,1.92,2.2,3.12.22,1.82,1.51,3.05,2.53,4.41,2.2,2.95,4.01,6.04,4.21,9.84-1.89.71-2.35,4.28-5.28,2.82-2.64-1.32-2.18-3.94-2.22-6.28-.02-1.09-.44-1.88-1.39-2.47-2.12-1.31-3.27-3.27-3.94-5.66-.51-1.82-1.49-3.27-3.8-2.11-.41.21-1,.5-1.33.36-6.22-2.66-11.54.36-16.82,2.84-1.78.84-3.14.77-4.5-.21-2.33-1.69-4.51-1.81-6.83-.04-1.84,1.39-3.72,1.14-5.54-.15-1.51-1.07-2.55-2.63-4.32-3.52-1.35-.68.32-1.85.47-2.84-.65-2.98,2.02-4.42,3.05-6.63.18-.3.39-.56.63-.82,1.3-1.23,2.68-2.42,3.37-4.12.34-.82.45-1.8-1.05-1.21-4.52,3.2-7.58,7.74-10.98,11.95-.98,1.21-.78,2.53-.25,3.85-.9,3.73-7.59,6.37-10.56,4.17-.97-.72-.47-1.87-.86-2.75-.47-1.08-1.17-2.04-2.43-2.03-1.42,0-1.88,1.07-1.88,2.31,0,2.42-1.48,2.86-3.47,2.8-2.96-.1-5.84.23-8.63-1.65-1.76-1.19-4.27-1.49-5.95.93-.57.82-1.01,2.39-2.47,1.43-1.11-.72-2.22-1.65-1.51-3.4.31-.76.23-1.71.22-2.58-.01-1.11-.54-1.91-1.7-2.14-1.23-.24-1.89.34-2.08,1.54-1.86-2.06-3.67-1.8-6.08-.57-5.2,2.66-10.9,4.37-14.85,9.1-1.13,1.35-1.85,2.95-3.05,4.22-2.07.47-1.17,1.88-.96,3.08-.02.76-.22,1.38-1.11,1.49-5.36-2.64-7.18-1.74-7.62,3.75-.12,1.51-.27,3.44-1.86,3.67-1.8.26-1.49-2.3-2.68-3.15-.88-1.09-.87-2.13.2-3.09.33-.73.88,1.25.87.03,0-2.6.75-5.08.71-7.72-.05-3.07,2.55-4.57,5.44-5.27.92-.22,2.62-.02,2.55-1.01-.16-2.12,1.08-4.14.34-6.21-.27-.75-1.11-.96-1.89-.96-1.45,0-1.74,1.13-2.13,2.21-.64,1.74-1.59,3.39-3.79,2.48-2.15-.89-2.6-2.85-2.15-5.01.33-1.58,2.11-1.59,3.47-3.22-3.66-.18-6.94.06-10.09-.64-3.73-1.47-5.41-4.99-7.58-7.92-4.44-6.02-4.33-6.08-8.6.11-2.32,3.37-4.87,6.57-7.22,9.93-.74,1.06-1.39,2.42-3.03,2.46Z"/>
    <path class="cls-28" d="M403.73,254.37c-5.84,16.06-14.13,30.75-24.44,44.36-24.14,31.86-55.42,53.47-93.52,65.32-10.5,3.26-21.29,5.2-32.1,7.03-1.99.16-2.04-1.59-2.46-2.72-6.84-18.38-11.55-37.22-11.39-56.98.07-8.73-.35-17.46.64-26.2,2.33-20.58,12.25-36.1,29.94-46.77,6.86-4.14,14.1-7.55,21.11-11.38,1.08-.59,2.23-1.17,3.54-1.05,1.96,2.58,1.38,4.54-1.82,5.73-1.72.64-3.66.69-5.01,2.21-1.55,1.75-2.32,3.4.44,4.66,1.05.48,1.64,1.05,1.34,2.25-.17.94-2.04,2.36.55,2.56,4.21.32,4.33,3.23,4.27,6.34-1.08,2.41-2.54,2.29-4.3.52.22,3.3.02,6.32-3.79,7.44-4.34-1.31-8.14-4.02-12.66-4.86-1.54-.45-1.41.88-1.78,1.68-.41.88-.77,2.05-1.93,1.86-.91-.15-1-1.26-1.13-2.11-.07-.48-.09-.97-.15-1.43-2.91,1.81-2.89,4.82-2.72,7.57.46,7.72,5.51,11.97,12.1,14.64,4.03,1.64,8.41,2.24,12.61,3.37,1.93.52,2.05-.39,1.8-1.98-.63-3.94-2.13-7.67-2.67-11.63-.02-1.4.37-2.73,1.18-3.82,1.29-1.71,2.09-3.2,1.17-5.58-.57-1.48-.19-3.84,2.71-3.32,2.7,8.69,8.14,15,16.5,18.66,4.84,2.12,10.02,2.94,15.25,3.32,2.11.15,4.23.14,6.32.53,2.3.43,3.23-.44,2.9-2.85-1.52-11.15-2.79-22.37-11.57-30.79-.54-.52-.92-1.18-.81-2,1.55-2.1,3.94-1.88,6.1-2.08,4.81-.44,9.64.44,14.49-.77,3.72-.92,5.15.95,4.56,4.94-.24,1.61-.6,3.21-.2,4.83.36,1.48,1.15,2.49,2.85,2.39,1.7-.1,1.88-1.37,2.03-2.65.09-.74.06-1.5.11-2.25.31-4.53,1.68-5.88,6.33-6.03,2.37-.08,4.69-.18,7.02-.92,3.44-1.08,6.26-2.01,6.64-6.64.3-3.62,4.06-2.87,6.74-2.9,2.62-.02,3.7,1.42,3.97,3.96.64,6,.71,5.99,6.58,6.52,4.91.44,6.24,3.29,3.43,7.39-1.99,2.91-1.84,3.38,1.52,4.69,1.63.64,3.38.92,5.01,1.54,1.56.59,3,1.34,2.7,3.43Z"/>
    <path class="cls-50" d="M207.94,370.39c-2.09,1.29-4.18.09-6.13-.25-49.01-8.76-89.59-31.73-119.98-71.66-12.59-16.54-21.92-34.79-28.03-54.66-.28-.93-.3-1.93-.44-2.9-.29-.74-.46-1.53.42-1.93.8-.37,1.5.09,1.92.74,1.37,2.09,2.78,4.2,3.62,6.54.88,2.47,2.18,4.93,2.38,7.47.34,4.27,3.07,7.26,4.86,10.73,1.66,3.21,3.62,3.51,6.27,1.05,2.08-1.93,4.35-2.84,7.11-2.71,2.68.13,3.92-1.19,3.91-3.82,0-1.9.63-3.68,1-5.52.88-4.47,1.25-4.84,5.85-4.9,4.25-.05,8.55-.45,12.73.11,5.26.7,10.64,1.64,13.88,6.81,1.55,2.48,1.96,4.87.28,7.34-1.76,2.58-1.71,5.42-1.39,8.3.19,1.72,1.15,2.75,2.99,2.66,1.78-.09,1.78-1.42,1.84-2.7.07-1.64.24-3.27,1.18-4.66,1-1.48,1.92-1.49,2.56.33.08.36.15.73.13,1.1-.38,6.46-.38,6.57,6.03,6.15,5.94-.39,11.87-1.05,17.45-3.35,3.48-1.44,6.5-3.56,9.17-6.24,1.28-1.28,2.36-2.97,4.51-2.97,1.36,1.16.66,2.43.25,3.67,2.02-.3,4.09-.47,6.12.29,1.12,3.41-.48,6.61-.8,9.91-.35,3.59-.31,3.73,3.25,2.91,5.11-1.18,10.15-2.54,14.78-5.15,6.81-3.84,9.5-9.62,7.91-17.23-.25-1.22-.68-2.41-.48-3.68,2.46-2.39,4.09-2.29,5.32.45,1.03,2.29,1.74,4.64,1.16,7.25-.45,2.02-.69,4.11.49,6.21,1.37-1.13.96-2.72,1.71-3.84.71-1.06,1.39-2.22,2.8-2.19,1.46.04,2.06,1.22,2.45,2.47.63,2.02,1.12,4.09,1.75,6.11.33,1.07.73,2.12,1.32,3.09.39.65.86,1.38,1.71,1.21.92-.18.96-1.06.88-1.81-.15-1.36.11-2.98-.56-4.04-2.33-3.66-3.49-7.96-6.29-11.35-.24-.29-.41-.69-.72-.86-4.25-2.33-7.53-5.98-11.57-8.58-1.74-1.12-3.71-1.44-5.66-.23-1.46.92-3.09.88-4.71.77-1.74-.12-3.2-.73-3.65-2.62-.44-1.9.09-3.69,1.82-4.49,1.92-.89,2.91-2.62,4.42-3.86.92-.07,1.7.33,2.48.73,17.94,9.11,28.72,23.5,32.05,43.42,2.09,12.54,1.9,25.1.66,37.69-1.62,16.48-4.95,32.58-10.47,48.2-.58,1.63-.9,3.42-2.53,4.46Z"/>
    <path class="cls-47" d="M124.08,267.2c-.27-.33-.2-1.72-.9-.74-.99,1.38-1.44,3.21-1.06,4.95.44,2.02.36,3.53-2.15,3.71-2.21.16-4.76.11-4.87-2.7-.14-3.45-1.19-7.06,1.67-10.31,2.33-2.65-.92-8.86-4.45-10.22-7.53-2.91-15.31-2.2-23.06-2.24-2.01-.01-3.19,0-3.2,3.03-.01,2.93-1.12,5.98-1.36,9.07-.16,2.07-1.97,2.29-3.71,2.14-3.1-.26-5.59.33-7.9,2.97-2.71,3.09-6.77,1.74-7.95-2.37-.5-1.76-.97-3.24-2.72-4.14-.87-.45-1.4-1.3-1.35-2.47.22-4.97-2.14-9.22-3.96-13.61-.57-1.36-1.22-2.72-2.04-3.95-1.07-1.61-1.46-.54-1.72.59-4.04-11.07-5.81-22.62-7.08-34.26-1.41-12.93-1.43-25.87-.15-38.82.1-.98.4-1.95.6-2.92,2.13,2.13.92,4.89.5,6.94-.79,3.83,1.06,7.59.05,11.03-1.37,4.67,1.45,8.33,1.99,12.48.39,2.95,4.59,1.92,6.92,3.14,1.37.72,3.89.34,4.14-1.4.64-4.51,3.86-3.51,6.62-3.72,3.4-2.09,7.06-1,10.63-.88,1.52.51,3.39-.36,4.64,1.52.68,1.02,1.81.23,2.49-.57,1.18-1.39,1.07-2.9.47-4.54-.57-1.55-1.25-2.63-3.19-2.31-1.27.21-2.37-.63-3.57-.91-.84-.19-1.81-.53-2.47.18-.64.69.14,1.35.45,1.97.47.93.91,1.85-.4,2.49-3.29.77-6.59.73-9.89.07-1.68-.35-1.26-1.16-.44-2.05,1.07-1.18,2.5-.9,3.85-.96.94-.04,1.76-.25,1.83-1.4.07-1.15-.46-2.05-1.58-2.18-1.6-.19-3.23-.15-4.85-.15-1.63,0-3.04-.25-3.18-2.28-.11-1.69-.08-3.19,2.05-3.81,2.7-.78,4.74-3.04,7.84-3.25,1.47-.1,2.87-1.72,2.76-3.56-.17-2.8,1.47-3.01,3.55-2.86.74.05,1.5.07,2.24,0,2.78-.27,4.08.67,4.08,3.74,0,4.86,2.39,6.26,6.71,4.08,2.58-1.3,4.45-1.3,6.5,1.14,2.73,3.24,6.39,2.83,10.63-.69,1.99.86,3.05,2.43,3.49,4.49-.38,1.81-2.18,1.12-3.51,1.72,2.06,2.53,4.43-.15,6.36.81,4.1,2.14,8.31,3.41,13.45,1.23-5.08-2.18-8.08-6.02-10.3-10.54-1.63-3.32-.92-4.49,2.84-4.72,8.97-.55,16.67,3.91,20.71,12.01.22.45.34.93.94,1,.36-.33.76-.97,1.06-.92,1,.15.94.92.65,1.68-.88,2.3-.88,4.55.33,6.74,1.73.43,2.06,2.05,2.76,3.32,2.87,5.15,6.1,10.03,10.48,14.04,2.45,2.24,5.16,4.11,8.47,5.05-4.29-3.39-7.41-7.81-11.1-11.7-.75-.79-1.59-1.68-.92-2.97l1.16-5.19c.26-2.13,2-2.32,3.54-2.49,1.9-.22,3.55.91,5.34,1.36,1.92-1.2,4.09-.26,6.14-.72,5.7-1.26,5.94-1.6,2.69-6.11-4.33-3.83-9.67-2.1-14.6-2.63-1.27-.14-1.27-.11-.4-1.62,1.11-1.97,3.12-1.59,4.88-1.91,1.31-.23,3.15.36,3.35-1.89,1.19-1.9,2.54-1.44,3.93-.26.68.58,1.44,1.27,2.27.61.92-.74.46-1.76.14-2.73-.48-1.42-1.85-1.91-2.76-2.87-.75-.79-2.85-1.8-.37-3.12,2.11-.7,3.93.26,5.7,1.14,22.53,11.1,37.94,28.24,45.06,52.61,2.92,10,4.4,20.2,5.36,30.51.12,1.23.38,2.82-.92,3.37-1.62.68-2.36-.98-3.11-2.04-11.79-16.58-28.3-25.06-48.03-27.99-1.45-.21-2.9-.38-4.68-.1,4.56,2.34,8.69,4.88,13.04,7.03,1.6.79,3.58,1.36,3.94,3.6-.15,1.56.3,3.48-1.99,3.86-1.99.33-3.22,1.26-3.29,3.37-.03,1.06.17,2.18,1.31,2.42,1.93.4,4.33,1.09,5.72-.36,2.23-2.32,4.75-1.16,6.23-.22,2.04,1.28,5.07,1.83,5.75,4.92.21.94,1.25,1.05,2.14,1.22,3.76.72,5.03,4.45,7.72,6.47-2.04,2.71.62,2.68,1.99,3.4.88.46,1.19.87.06,1.45-.87.44-.4,1.36,0,1.5,3.65,1.26,1.7,4.64,2.62,6.92.49,1.21.76,3-1.42,3.61-1.9.53-2.37-.82-3.06-1.98-1.76-2.95-2.19-6.34-3.13-9.56-.29-.99-.28-2.13-1.43-2.3-1.19-.18-1.56,1.02-2.07,1.84-.61.99-.72,2.1-.72,3.24,0,1.02-.11,2.16-1.4,2.28-1.27.12-1.56-1.09-1.93-1.97-.74-1.8-.72-3.8-.24-5.53.67-2.46.07-4.5-.55-6.84-.8-3.04-2.14-2.7-4.16-1.68-1.35.09-1.79-.93-2.25-1.82.54,3.14.5,6.39.19,9.59-.66,6.84-8.49,12.23-15.32,12.59-2.34.12-2.15-1.73-1.7-3.2,1.38-4.5,3.81-8.38,7.18-11.68,1.38-1.35,3.05-2.46,4.34-4.56-6.8.87-11.75,3.68-14.96,9.32-.7,1.23-.88,2.99-2.78,3.18-.23.08-.46.17-.69.23-4.83,1.24-6.02.35-5.51-4.17-.82-.86-.67-1.88-.25-2.79,1.85-3.99,2.74-8.26,3.85-12.47.68-2.57,2.38-4,5.12-4.33-11.31-11.6-30.94-9.23-39.48,4.57-2.8,4.52-4.12,9.55-5.08,14.74-.38,2.05.24,4.63-2.2,5.97Z"/>
    <path class="cls-35" d="M403.73,254.37c-.77-2.1-2.65-2.4-4.49-2.82-1.21-.27-2.42-.59-3.57-1.04-5.47-2.14-5.43-2.13-1.75-6.63.85-1.04,1.82-2.22,1.09-3.71-.67-1.37-1.92-1.86-3.43-1.79-.75.04-1.5,0-2.25,0-4.88-.03-5.84-.98-5.96-5.94-.11-4.05-4.11-6.26-7.75-4.27-1.71.93-1.29,2.59-1.21,4.01.13,2.53-.7,3.48-3.4,4.19-4.23,1.1-8.29,2.4-12.75,2.08-2.26-.16-3.36,1.33-3.38,3.57-.01,1.37-.04,2.75,0,4.12.06,1.96-.3,3.41-2.75,3.53-2.27.11-3.95-.41-4.55-2.82-.63-2.51-.03-4.95.61-7.35.48-1.79-.21-3.04-1.91-2.52-7.26,2.2-14.97-.51-22.15,2.18-1.19.55-2.19-.06-3.18-.55-9.16-4.58-18.07-3.55-26.89,1.04-1.35.7-2.64,2.12-4.43.97.04-2.59-2.82.27-3.48-2.01-.96-3.29.58-6.31,4.51-7.18,2.77-.61,5.54-1.18,4.97-5.05-.35-1.06-1.16-1.12-2.11-1.03-21.46,1.98-39.79,9.92-52.92,27.78-.22.3-.42.63-.67.9-.74.79-1.4,2.09-2.69,1.5-1.14-.52-1.19-1.91-1.02-3,.78-5.06.64-10.19,1.4-15.26,3.03-20.17,10.59-38.14,25.26-52.71,6.71-6.66,14.59-11.67,23.01-15.87,1.59-.79,3.27-2.04,5.23-.78,2.07.55,1.37,1.87.14,1.94-2.45.14-3.05,2.32-4.64,3.32-.75.46-1.57.97-1.02,2.03.46.89,1.4,1.07,2.25.92,2.6-.45,5.18-1.01,7.77-1.52.35,1.62.76,3.09,2.97,2.89,1.13-.1,2.23.29,3.08,1.12,1.07,1.06,2.18,1.06,3.35.22,1.31-.94,3.03-1.83,3.3-3.4.35-2.05-2.07-1.62-3.12-2.5-.4-.34-.72-.66-.58-1.23,2.86-1.99,5.25-.17,6.9,1.59,1.75,1.88-.8,3.16-1.9,4.55,3.64.29,4.17,2.06,2.64,8.58,2.82-.85,2.45-.92,2.97-3.37.65-3.07-.86-6.57,2.59-9.31,1.23-.98,1.41-4.16,3.06-5.91.92-.98,1.69-1.6,2.5.05.56,1.61-.74,2.52-1.42,3.63-1.72,2.81-2.91,5.78-3.14,9.92,2.65-3.53,5.11-6.32,8.36-8.34,4.94-3.06,10.29-3.53,15.85-3.07,1.48.12,3.04.75,1.78,2.58-3.07,4.46-5.19,9.82-10.87,11.96,5.05,2.06,10.41.75,14.25-3.68,3.04-3.51,5.44-7.43,6.9-11.89.52-1.6.82-3.48,2.85-4.08.35-.76.7-1.51,1.05-2.27,3.37,7.11,8.09,7.82,15.46,3.76,4.45-2.45,9.98-2.04,15.02-1.22,3.73.61,7.57,1.23,11.09,2.83.96.44,2.11.51,1.92,2.21-.58,5.18,3.9,7.94,6.08,11.78.92,1.61,4.32-1.03,4.81-3.81,1.28-7.35.09-14.58-.98-21.81-.85-5.7-2.57-11.21-4.06-16.76-.35-1.3-.59-2.71.4-3.93,6.36,20.39,8.33,41.3,7.28,62.54-.26,5.22-.49,10.47-1.81,15.58-.29-.26-.58-.72-.37-.94.32-.34-.46-.72-.15-.32.2.27.07.58.05.85-.6,6.51-1.98,12.86-3.81,19.13-.4,1.37-.82,2.83-.42,4.33.08.63-.04,1.2-.56,1.62-1.46,2.52-2.41,5.18-2.37,8.14.08.65-.15,1.18-.63,1.61-1.48,1.13-1.52,2.76-1.55,4.4.05.67-.11,1.27-.65,1.72Z"/>
    <path class="cls-5" d="M291.14,167.98c-13.54,4.79-24.59,13.15-33.57,24.17-12.49,15.33-18.12,33.34-19.7,52.8-.28,3.4-.42,6.82-.67,11.11,7.79-11.09,16.73-19.43,28.48-24.62,10.07-4.45,20.5-6.94,31.6-7.16.23,1.41-1.31,1.33-1.64,2.16-14.08,6.79-28.44,13.13-39.41,24.88-8.89,9.52-13.02,21.09-14.64,33.77-1.13,8.84-.9,17.68-.75,26.56.28,16.29,3.52,32.02,8.42,47.46,1.29,4.07,2.93,8.03,4.41,12.03-3.33,1.69-7.08,1.23-10.5,1.36-11.16.43-22.36.6-33.51-.76-1.21-.15-1.17-.85-1.71-1.28,2.47-9.14,6.04-17.97,7.85-27.3,4.28-22.04,7.31-44.14,2.63-66.53-2.5-11.97-8.06-22.32-17.48-30.17-4.75-3.96-10.28-6.98-15.46-10.42-6.42-4.38-13.75-7.2-20.11-11.71,24.51.69,44.29,10.4,58.5,30.79-.7-35.6-14.01-71.06-54.76-87.21-5.95-3.16-12.55-4.7-18.66-7.46-1.12-.51-2.23-1.02-3.81-1.75,16.28.75,34.79,5.77,46.67,12.53,13.43,7.65,24.7,20.64,31.9,37.22.26-27.26.5-53.65,4.69-79.8,3.04,6.42,2.07,13.43,3.39,20.06,1.73,4.75,1.6,9.8,1.83,14.68.61,12.84,1.3,25.69.93,38.56-.04,1.49-.25,2.96-.28,3.51,2.38-6.23,6.37-12.51,11.16-18.21,9.71-11.54,21.55-20.01,36.24-24.17,4.09-1.16,8.24-1.76,12.47-1.85,1.11.02,2.22.02,3.19-.66,2.39-2.06,5.25-1.67,8.06-1.56h2.89c-1.36,3.54-5.45,2.23-7.52,4.41-1.04.91-2.05,1.88-3.63,1.56-2.6.75-5.16,1.6-7.5,2.99Z"/>
    <path class="cls-41" d="M458.47,462.05c0-2.88,0-5.79,0-8.71.01-12.24.09-24.48,0-36.72-.02-3.2,1.26-4.57,4.42-4.51,10.37.19,8.85-.54,8.85,8.44,0,27.23-.04,54.46-.06,81.69,0,4.88-.48,5.47-5.29,5.39-11.63-.19-9.34,2.39-12.81-9.61-3.5-12.11-6.83-24.26-10.23-36.4-.2-.71-.22-1.5-1.08-1.8,0,14.06.02,28.11-.02,42.16,0,1.92.67,4.65-1.65,5.28-3.31.89-6.97,1.38-10.24-.23-1.62-.8-1.14-2.87-1.14-4.48.02-27.35.07-54.71.06-82.06,0-8.44-.06-8.23,8.22-8.61,4.01-.18,5.69,1.23,6.74,5.05,4.06,14.78,8.45,29.48,12.72,44.2.13.46.24.99,1.49.94Z"/>
    <path class="cls-1" d="M50.54,460.02c0-14.24.08-28.49-.06-42.73-.03-3.58,1.31-5.03,4.83-4.89,4.62.18,9.25,0,13.86.29,10.16.65,17.6,7.66,18.64,17.73.63,6.09.42,12.24-.17,18.34-.41,4.31-1.85,8.31-4.55,11.71-1.21,1.54-1.46,3-1.09,4.84,2.39,11.86,4.75,23.73,7.03,35.62.43,2.24,1.45,4.72-.95,6.57-1.12.86-9.35.96-10.28.1-1.37-1.27-1.49-3.11-1.83-4.81-2.13-10.65-4.31-21.29-6.29-31.96-.46-2.49-1.48-3.3-3.94-3.15-2.97.18-1.73,2.29-1.74,3.57-.1,10.62-.15,21.24-.03,31.86.04,3.39-.91,4.98-4.64,5.02-8.75.1-8.76.26-8.76-8.37,0-13.24,0-26.49,0-39.73,0,0-.02,0-.03,0Z"/>
    <path class="cls-32" d="M144.19,460.02c0-14.12,0-28.24,0-42.35,0-4.67.73-5.47,5.41-5.43,4.37.04,8.75.08,13.1.41,11.39.86,19.39,8.15,19.74,19.65.57,18.35.58,36.74-.02,55.08-.4,12.1-9.72,19.95-22.57,20.57-3.49.17-7,.11-10.49.11-4.41,0-5.06-.55-5.07-4.94-.05-14.37-.02-28.74-.02-43.11-.03,0-.06,0-.09,0Z"/>
    <path class="cls-46" d="M193.89,453.02c0-11.99.07-23.97-.05-35.96-.03-3.25.92-4.78,4.44-4.79,10.71-.05,9.22-.25,9.18,8.85-.08,21.35-.07,42.7-.06,64.06,0,1.49.14,3,.43,4.46.54,2.73,2.09,4.5,5.05,4.58,3.15.09,4.89-1.78,5.51-4.57.45-2.05.47-4.22.47-6.33.03-21.98.03-43.95.02-65.93,0-4.56.54-5.14,5.17-5.23,8.23-.15,8.27-.15,8.26,8.11,0,20.98-.03,41.96-.1,62.93-.01,2.99-.02,6.04-.63,8.94-2.14,10.13-10.62,16.44-20.35,15.43-9.95-1.03-16.92-8.57-17.07-18.96-.18-11.86-.04-23.72-.04-35.59-.08,0-.16,0-.24,0Z"/>
    <path class="cls-46" d="M397.04,412.12c9.83.05,8.2-.81,9.62,8.85,3.32,22.7,6.73,45.39,10.08,68.09.69,4.69,1.29,9.39,1.9,14.09.41,3.17-.94,4.59-4.22,4.56-9.4-.11-8.38.97-9.72-8.03-.06-.37-.12-.74-.17-1.11-1.43-9.9-1.43-9.85-11.33-9.21-1.69.11-2.42.58-2.62,2.29-.47,4.09-1.18,8.15-1.66,12.23-.32,2.74-1.65,3.76-4.43,3.85-9.14.31-9.4.05-8.09-8.98,3.76-26.05,7.46-52.1,11.18-78.15.02-.12.04-.25.05-.37q1.04-8.09,9.41-8.11Z"/>
    <path class="cls-46" d="M288.28,460.02c0-14.12,0-28.23,0-42.35,0-4.95.74-5.74,5.56-5.67,4.74.08,9.5.04,14.22.44,10.43.89,17.35,7.64,18.11,18.04.54,7.46.61,14.98-.34,22.45-1.25,9.77-6.61,14.71-16.33,15.17q-7.91.38-7.88,8.44c.02,8.87-.06,17.74.08,26.61.06,3.43-1.38,4.6-4.68,4.66-8.76.16-8.74.26-8.73-8.44.01-13.12,0-26.23,0-39.35,0,0,0,0-.01,0Z"/>
    <path class="cls-31" d="M.05,460.02c0-14.23-.01-28.47,0-42.7,0-4.3.68-4.99,5.01-4.96,4.74.03,9.49.04,14.22.34,11.37.72,18.66,8.07,19.13,19.49.25,6.23.21,12.49-.11,18.72-.61,11.89-6.37,17.28-18.29,17.52q-6.26.13-6.25,6.25c.02,9.61-.06,19.23.1,28.84.05,3.35-1.07,4.69-4.54,4.65-10.27-.12-9.23,1.08-9.29-9.18-.08-12.98-.02-25.97-.02-38.96h.03Z"/>
    <path class="cls-46" d="M242.49,459.02c0-9.61-.15-19.23.04-28.84.2-10.12,5.53-16.64,14.68-18.48,9.02-1.82,17.84,3.49,20.37,12.31,1.11,3.88,1.13,7.88,1.12,11.88,0,2.32-1.05,3.6-3.38,4.2-6.67,1.73-9.25-.08-9.58-6.91-.07-1.49-.05-3.03-.44-4.45-.71-2.55-2.48-4.07-5.24-3.85-2.84.24-4.15,2.06-4.17,4.81-.06,6.99-.09,13.98-.12,20.97-.04,11.24-.08,22.47-.09,33.71,0,1.75-.1,3.54.25,5.23.53,2.5,2.04,4.42,5.14,4.13,2.3-.22,4.11-2.08,4.47-4.37.29-1.86.32-3.8.18-5.68-.26-3.51,1.32-5.15,4.72-5.2,1.49-.02,2.98-.03,4.46.1,2.68.24,4.01,1.66,3.82,4.46-.14,1.99-.06,3.99-.16,5.99-.58,11.06-7.88,18.25-18.35,18.13-9.84-.12-17.48-7.92-17.72-18.55-.23-9.86-.05-19.73-.05-29.59h.03Z"/>
    <path class="cls-3" d="M336.15,460.02c0-14.12-.01-28.24,0-42.36,0-4.88.18-5.07,5.11-5.06,8.17,0,8.09-1.1,8.06,8.07-.08,23.37.12,46.74.05,70.1,0,3.02.65,4.14,3.87,3.87,3.85-.32,7.74.01,11.61-.08,3.03-.07,4.2,1.35,4.31,4.29.34,8.82.09,9.15-8.53,9.18-6.62.03-13.25-.07-19.87.14-3.48.11-4.63-1.37-4.62-4.67.08-14.5.03-28.99.03-43.49h-.04Z"/>
    <path class="cls-34" d="M117.97,504.75c-8.84,2.12-17.89-5.5-18.01-15.56-.18-15.11-.07-30.22-.07-45.34,0-3.75-.09-7.5.02-11.24.23-7.69,5.27-13.65,12.6-15.08,7.36-1.43,14.09,2.1,17.36,9.1-.85,1.19.38,3.47-2.02,3.85-.88-.39-1.15-1.26-1.6-2.01-3.45-5.74-8.45-8-14.12-6.38-5.2,1.48-8.03,5.78-8.06,12.46-.05,10.49-.01,20.98-.01,31.47,0,6.49.09,12.99-.02,19.48-.12,6.86,2.17,12.2,8.85,15,.46.19.87.48,1.21.85-.04,1.99,1.34.65,2.05.83,1.35.35,3.69-.07,1.84,2.56Z"/>
    <path class="cls-39" d="M128.38,430.46c.09-1.43.29-2.82,1.48-3.83.3.91.61,1.82.91,2.73.49,1.33.25,2.72.25,4.08.02,18.45.02,36.91,0,55.36,0,1.36.23,2.74-.25,4.08-1.52,6.92-6.13,10.52-12.81,11.86.24-3.19-2.18-1.15-3.3-1.58-.93-.35-2.02-.13-.23-.97.69-.81,1.7-.99,2.63-1.23,5.61-1.49,9.03-5.18,10.75-10.62.31-.98.28-1.97.28-2.97-.02-18.53.07-37.06-.05-55.58-.04-.48.08-.93.34-1.34Z"/>
    <path class="cls-34" d="M130.78,492.89c0-21.17,0-42.35,0-63.52,1.04,1.57.75,3.36.75,5.06,0,18.04-.03,36.07-.07,54.11,0,1.47.19,3-.67,4.35Z"/>
    <path class="cls-28" d="M409.49,236.88c-1.94-3.41.25-6.53,1.13-9.5,1.62-5.47,1.86-11.13,3.04-16.73.87,1.01.24,2.17.55,3.17-.67,7.87-2.47,15.51-4.71,23.06Z"/>
    <path class="cls-35" d="M379.69,76.3c-2.61-.38-3.27-3.04-5.08-4.4-1.96-1.48-1.53-6.1-5.93-4.41-.08.03-.45-.34-.44-.5.25-2.64-2.3-4.45-2.1-7.06,5.01,5.05,9.54,10.49,13.55,16.37Z"/>
    <path class="cls-35" d="M388.63,93.68c-2.16-4.59-3.85-9.43-7.23-13.36-.08-.09.32-.58.49-.89,3.86,4.88,7.16,10.11,9.87,15.71-1.01-.56-2.33-.47-3.14-1.46Z"/>
    <path class="cls-35" d="M403.04,119.12c-3.29-3.6-5.81-7.53-5.45-12.69,2.35,4,4.07,8.27,5.45,12.69Z"/>
    <path class="cls-28" d="M406.56,246.64c-.77-2.63.34-6.44,2.37-8.14-.34,2.84-1.36,5.49-2.37,8.14Z"/>
    <path class="cls-47" d="M48.31,153.68c1.79,2.82-.38,5.46-.14,8.33-.94-.5-.62-1.22-.79-1.77-.13-2.25.34-4.42.94-6.57Z"/>
    <path class="cls-35" d="M362.41,56.13c-1.48.79-3.07-.52-3.86-.88-2.34-1.06.24-1.46.92-2.11,1.23.75,2.13,1.82,2.94,2.99Z"/>
    <path class="cls-49" d="M101.16,53.81c-.03,2.98-2.09,3.94-4.52,4.54,1.18-1.84,2.82-3.22,4.52-4.54Z"/>
    <path class="cls-28" d="M404.38,252.65c-.29-1.75-1.97-3.99,1.55-4.4-.18,1.58-.73,3.04-1.55,4.4Z"/>
    <path class="cls-35" d="M408.19,134.05c-2.06-1.61-2.6-3.38-1.57-5.12.88,1.6,1.4,3.31,1.57,5.12Z"/>
    <path class="cls-35" d="M295.65,161.16c-4.59,1.16-9.24,2.1-13.75,3.52-22.3,7.04-36.9,22.4-46.72,44.3,0-2.16,0-3.38,0-4.59,0-1.25-.04-2.5-.05-3.74-.05-17.36-1.23-34.67-1.83-52.01.1-1.29.2-2.59.29-3.88.1,0,.2,0,.29.01.34,2.18.71,4.36,1.01,6.54.15,1.09-.11,2.42,1.34,2.74,1.26.28,1.57-1.03,2.19-1.73.65-.72,1.11-1.6,1.65-2.41,1.42-1.96,1.1-4.44,2.03-6.6,1.9-4.42,4.09-8.57,8.14-11.4,2.81-1.96,4.13-1.47,5.26,1.75,2.38,6.77,1.68,13.25-1.8,19.48-1.7,3.05-3.61,5.97-5.99,9.18,8.76-3.19,13.7-9.18,16.31-17.51,1.08-3.45.7-7.17,2.29-10.47.06-.98.12-1.97.21-3.55.96,1.52,1.39,2.63,1.37,3.91-.07,4.72-.23,9.43-2.62,13.7-.82,1.45-1.49,2.89-.38,4.52.6.88.7,1.76-.04,2.73-1,1.31-.27,2.11,1.07,2.38,1.21.25,2.26-.12,2.58-1.5q1.06-4.55,5.55-2.12c.2.11.47.09,1.24.23-.01-5.89-1.94-11.82.7-17.54.09.58.17,1.16.26,1.74,1.58,5.65,1.6,11.45,1.61,17.73,2.56-2.1,3.77-4.73,4.76-7.46,1.61-4.47,3.36-8.87,5.67-13.02,3.88-6.95,9.58-11.74,17.17-14.16,4.15-1.33,5.2-.36,4.8,4-.85,9.39-4.5,17.54-10.72,24.61-1.17,1.33-2.65,1.76-4.1,2.4-.02.67,3.22.88.15,2.12-1.63.67-2.89,2.32-4.91,2.35-1.23.02-1.88.63-1.68,1.89.23,1.41,1.04,1.77,2.43,1.39,1.41-.39,2.93-.78,4.21.45Z"/>
    <path class="cls-21" d="M215.47,75.84c4.73-6.52,9.46-13.05,14.35-19.8,3.88,4.89,7.69,9.7,11.51,14.5,5.57,4.39,7.49,10.65,8.51,17.22.44,2.84,1.04,5.91-.83,8.63-.66,1.01-.64,2.15-.65,3.29-2.86,7.94-7.21,14.73-14.59,19.27-2.01,1.24-3.84,1.43-5.95.29-15.06-8.13-20.94-24.81-14.03-40.61.43-.99,1.11-1.87,1.67-2.79Z"/>
    <path class="cls-2" d="M138.93,108.63c7.55,1.17,15.34.91,22.61,3.85,14.59,5.9,24.26,17.63,21.83,34.53-.53,3.7-.51,7.46-.19,11.46-2.93-.69-4.12-2.96-5.07-5.14-1.95-4.44-3.57-9.03-5.38-13.54-3.67-9.15-10.73-14.4-19.9-17.25-2.02-.63-2.6-.6-2.24,1.88,1.54,10.86,5.32,20.51,14.05,27.69.53.44,1.33.78,1.29,1.7-14.87-.42-23.3-7.96-26.22-23.49-.87-4.66-1.53-9.36-2.58-13.98-.6-2.64-1.79-5.15-2.71-7.72,1.5-1.12,3.01-.73,4.52,0Z"/>
    <path class="cls-14" d="M295.44,152.96c8.91-7.79,13.2-17.81,14.14-29.43.2-2.54-1.58-1.34-2.44-1.08-8.55,2.53-15.02,7.7-18.88,15.79-1.98,4.14-3.43,8.54-5.25,12.76-1.38,3.2-2.97,6.33-6.86,7.71,1.35-6.73-.15-13.28.09-19.84,1.32-7.68,4.94-14.14,10.47-19.58.31-1.53,2.06-1.35,2.81-2.36,10.78-6.28,21.31-8.61,35.8-7.89.5,1.6-1.23,2.65-1.05,4.16-.92,5.18-1.48,10.43-3.27,15.43-1.02,3.57-2.05,7.14-3.07,10.71-.83,4.46-3.51,7.51-7.35,9.67-.5.29-1,.59-1.51.88-1.23,1.2-2.56,2.12-4.42,1.62-3,.94-5.98,2-9.22,1.45Z"/>
    <path class="cls-40" d="M213.42,163.5c-8.08-1.85-13.52-6.78-16.8-14.08-4.28-9.51-3.91-18.86,1.39-27.97,1.66-2.86,3.05-5.89,4.49-8.7,3.73,3.64,7.65,7.22,11.29,11.06,7.22,7.61,9.23,19.39,4.83,28.44-1.49-8.75-4.6-16.25-12.44-21.04-5.37,12.6.34,22.49,7.25,32.3Z"/>
    <path class="cls-8" d="M266.32,134.35c.17,6.44-1.22,12.53-4.51,18.08-3.7,6.26-9.71,10.42-16.23,11.41,2.17-3.25,4.36-6.4,6.41-9.65,4.16-6.63,4.94-13.63,2.41-21.09-.76-2.24-1.48-2.1-3.04-.88-5.59,4.36-8.61,10.18-9.82,17.04-.2,1.11.07,2.73-1.47.67-2.8-11.34.75-20.8,8.58-28.97,2.66-2.77,5.51-5.36,7.8-8.87,3.49,7.56,8.53,14.08,9.86,22.27Z"/>
    <path class="cls-48" d="M261.94,90.75c2.11-4.65,5.58-8.03,10.03-10.35,3.1-1.61,6.57-2.58,9.46-4.47,3.26-2.14,4.58-1.33,5.14,2.15.6,4.02,1.24,8.04,1.8,12.06,1.41,10.1-3.71,23.06-16.95,27.22,6.71-9.13,9.58-18.26,5.4-28.43-6.28,2.76-9.98,9.76-11.51,21.78-3.4-1.95-5.03-7.16-4.79-15.31.17-.58.33-1.16.5-1.74-.43-1.2-.26-2.22.92-2.91Z"/>
    <path class="cls-48" d="M171.31,87.2c.82-3.72,1.58-7.46,2.49-11.16.2-.83.12-2.67,1.95-1.51,5.53,3.49,12.29,4.72,17.17,9.4,6.17,7.17,7.77,15.18,4.31,24.06-.41,1.06-.42,2.52-2.44,2.98-.74-9.15-2.54-17.81-11.71-22.4-3.5,9.96-1.73,18.94,4.72,27.43-9.09-1.92-16.1-11.33-16.42-19.44-.12-3.11-.06-6.23-.08-9.35Z"/>
    <path class="cls-4" d="M357.96,164.92c-2.34,5.48-4.31,11.14-8.25,15.81-5.13,6.1-11.24,7.49-19.04,3.78,8.03-1.09,9.87-8.1,13.69-13.05-9.23-2.83-17.38.87-26.18,12.14-1.51-6.51,1.87-11.11,5.21-15.71.78-.73,1.56-1.46,2.34-2.19,2.18-3.31,5.66-4.47,9.23-4.87,6.32-.7,12.59.44,18.85,1.23.37.05.59.44.81.73,1.05.8,3.65-.83,3.34,2.12Z"/>
    <path class="cls-4" d="M111.23,180.57c-1.04-1.47-2.08-2.94-3.12-4.4-1.96-4.37-3.93-8.74-6.01-13.37,6.59-.67,12.72-1.63,18.96-1.7,11.26-.12,21.88,9.89,21.02,21.07-.7,2.06-1.09.28-1.38-.17-6.27-9.85-11.75-12.53-23.62-11.35,3.01,6.14,6.13,11.95,13.54,13.88-5.81,2.45-11.32,3.17-16.57-.86-1.23-.77-2.53-1.47-2.83-3.09Z"/>
    <path class="cls-57" d="M165.91,176.2c.69.61,1.38,1.23,2.28,2.03-3.76.63-7.14,1.2-10.52,1.76-1.99-.2-2.88.25-1.59,2.36.37.61,2.09.82.84,2.1-3.77.35-5.59-.88-6.73-4.56-.23-.57-.39-1.18-.72-1.69-2.36-3.64-2.3-3.81,2.02-5.19,5.43-1.74,10.31-1.08,14.41,3.18Z"/>
    <path class="cls-22" d="M153.81,197.41c4.36,5.93,9.61,11.04,15.47,16.44-6.31-.91-10.7-3.93-14.51-8.01-4.47-4.78-7.64-10.42-10.64-16.17.69-2.51,1.66-.5,2.16,0,2.57,2.52,5.03,5.15,7.53,7.74Z"/>
    <path class="cls-38" d="M304.63,171.71c1.95.98,5.39.91,5.55,2.98.16,2-2.69,3.66-4.58,4.95-1.02.7-3.11,4.31-4.15-.37-.25-1.11-1.95-.81-3.05-.85-1.36-.05-2.72-.01-4.08-.01-.52-1.68,1.06-2.5,1.31-3.8,2.42-2.76,5.65-3.01,9-2.89Z"/>
    <path class="cls-55" d="M172.67,184.25c1.94.86,4.51,1.98,4.28,3.99-.21,1.78-3.07,2.18-4.97,2.67-2.67.69-5.41.87-8.14.17,1.48-6.12,2.49-6.9,8.83-6.83Z"/>
    <path class="cls-7" d="M327.9,79.45c-1.97-.52-2.36-2.2-1.44-3.41,3.52-4.63,7.35-9.02,11.54-13.08.16-.16.71.08,1.07.13,1.77.64,1.79,1.85.81,3.1-.95,1.22-1.92,2.47-3.24,3.35l.06-.08c-1.4,2.38-2.86,4.7-5.36,6.11-1.48.99-2.61,2.31-3.43,3.88Z"/>
    <path class="cls-29" d="M341.47,139.32c2.5,1.31,3.21,2.7.25,4.36-1.17.66-2.26,1.45-3.38,2.18-2.92,2.34-5.94,4.48-9.71,5.23l-.34-.07h-.35c-2.14-1.05-1.81-2.91-.42-3.79,4.51-2.86,8.66-6.41,13.95-7.91Z"/>
    <path class="cls-18" d="M133.84,148.85c-.15,1.16-.56,2.14-2.34,1.17-4.26-2.33-8.53-4.64-12.86-6.85-1.68-.86-1.13-2-.67-3.14.65-1.61,1.61-.57,2.39-.13,4.02,2.26,8.02,4.57,12.04,6.85.74.42,1.7.62,1.44,2.11Z"/>
    <path class="cls-36" d="M119.28,64.44c.33-2.13,1.28-2.75,2.87-1,3.42,3.79,6.76,7.67,10.16,11.49,1.02,1.15,1.42,2.3.39,3.64-1.94.13-2.75-1.52-3.73-2.62-3.32-3.75-7.11-7.13-9.69-11.51Z"/>
    <path class="cls-35" d="M354.62,162.8c-3.09-.36-6.19-.62-9.26-1.09-7.05-1.07-13.65-.09-19.63,3.99-.46-.29-.86-.89-.48-1.2,2.85-2.34,5.61-4.86,9.18-6.12.41-.15,1.04-.09,1.42.14,5.01,2.97,10.56,1.7,15.89,2.01,1.99.11,3.78.75,5.79.98-.61,1.73-2,.89-2.9,1.3Z"/>
    <path class="cls-35" d="M341.47,138.85c-4.09,2.46-8.2,4.88-12.26,7.4-1.62,1-3.22,2.17-1.28,4.3-1.38,2.21-3.11.35-4.59.21-.98-.09-1.6-1.49-1.37-2.73.34-1.79,1.84-2.31,3.3-2.52,4.82-.71,8.53-2.98,11.44-6.95,1.27-1.72,3.22-.87,4.76.28Z"/>
    <path class="cls-12" d="M66.11,190.41c3.44-1.42,7.09,0,10.58-.76,1.21-.89,2.26-.64,3.06.53.9,1.32-.19,2.21-.83,3.17-3.99,0-7.98.02-11.97.03-.28-.99-.56-1.98-.84-2.97Z"/>
    <path class="cls-47" d="M150.19,179.91c1.78,2.2,3.83,4,6.73,4.56.14,2.14-.19,3.28-2.91,2.39-4.89-1.61-5.46-2.09-5.05-6.87.05-.61.8-.14,1.23-.08Z"/>
    <path class="cls-45" d="M391.66,103.73c-.08,1.98-.26,3.49-2.16,3.24-1.47-.2-2.66-1.48-2.2-2.87.52-1.59-.33-4.53,1.68-4.53,1.5,0,2.74,2.53,2.69,4.16Z"/>
    <path class="cls-35" d="M321,128.62c.56-5.26,1.19-10.5,3.27-15.43,1.47,3.89-1.23,7.32-1.26,11.07-.01,1.67-.42,3.5-1.21,4.96-.59,1.1-.51-.38-.8-.61Z"/>
    <path class="cls-35" d="M328.63,150.62l9.71-5.23c1.23.64,1.53,1.33-.02,1.88-2.45.88-4.72,1.58-6.13,4.35-.95,1.86-2.72.72-3.56-1Z"/>
    <path class="cls-35" d="M310.58,149c3.21-2.64,5.36-6.09,7.35-9.67.71,2.78-1.32,7.84-3.68,8.22-1.44.23-1.91,2.47-3.67,1.45Z"/>
    <path class="cls-35" d="M309.54,167.2c1.71-.78,2.69-1.23,3.67-1.68,1.01-.47,2.1-1.03,3.04-.05.58.61.17,1.4-.22,2.04-.67,1.12-1.59,1.98-2.99,1.52-1.01-.34-1.92-.98-3.51-1.83Z"/>
    <path class="cls-35" d="M306.9,158.95c-2.63.84-5.28,1.52-8.06,1.56-.57-.14-1.34-.1-1.68-.46-.4-.43.19-.82.63-.96,3.02-.96,6.03-2.58,9.1-.14Z"/>
    <path class="cls-35" d="M338.73,155.17c-.74-.27-2.4.49-2.11-1.08.27-1.43,1.93-1.83,3.31-1.84,1.07,0,2.71.31,2.38,1.57-.37,1.45-2.15,1.32-3.58,1.34Z"/>
    <path class="cls-45" d="M289.28,110.18c1,.07,2.39.13,2.19,1.39-.24,1.51-1.95,1.71-3.21,2.08-.71.21-1.89-.4-1.75-.95.33-1.28,1.03-2.59,2.77-2.52Z"/>
    <path class="cls-45" d="M285.9,116.17c-.3.21-.7.36-.9.64-.85,1.23-1.81,2.17-3.36,1.22-.92-.57-.53-1.47.16-1.76,1.3-.55,2.7-2.86,4.1-.1h0Z"/>
    <path class="cls-45" d="M152.1,108.54c.94-2.25,2.48-2.42,4.13-1.82.79.29.92,1.43.43,1.94-1.52,1.55-2.88-.39-4.56-.12Z"/>
    <path class="cls-35" d="M331.33,75.57c1.79-2.04,3.57-4.07,5.36-6.11.13,2.99-2.94,4.36-3.56,6.97-.6-.29-1.2-.57-1.81-.86Z"/>
    <path class="cls-35" d="M304.65,151.51c1.47-.54,2.94-1.08,4.42-1.62-1.15,2.66-2.34,3.09-4.42,1.62Z"/>
    <path class="cls-45" d="M138.93,108.63c-1.51,0-3.01,0-4.52,0-.14-.57-1.95-1.41-.03-1.62,1.57-.17,3.53-.31,4.54,1.61Z"/>
    <path class="cls-35" d="M298.65,164.92c1.05-.89,2.27-1.39,3.63-1.56-.99,1.03-1.19,3.9-3.63,1.56Z"/>
    <path class="cls-45" d="M289.52,116.93c-.6,1.18-1.77,1.69-2.81,2.36-.51-.98-.93-1.97-.81-3.11h0c1.07.92,2.23,1.36,3.62.75Z"/>
    <path class="cls-49" d="M249.01,96.39c1.33-9.77-2.65-17.97-7.68-25.85,3.18-.41,6.36.84,9.58-.05,1.09-.3,2.35.13,2.56,1.55.21,1.43-.76,2.08-2.02,2.09-1.81.02-2.52.87-2.22,2.58.24,1.4.76,2.93,2.38,2.92,1.7-.02,2.06-1.55,2.04-3.01-.03-3.47,2.56-2.56,4.26-2.25,1.93.35,3.02,1.74,1.94,3.9-.06.11-.16.23-.15.34.45,4.48-1.62,6.3-6.05,6.81-1.52.17-3.48,2.13-2.55,5,.87,2.67-1.11,5.13-1.77,7.76-.11-.59-.21-1.19-.32-1.78Z"/>
    <path class="cls-30" d="M269.87,23.16c1.29-1.55-1.19-5.39,2.98-5.76,1.53-.14,2.19.83,1.43,2.12-1.15,1.94,1.04,5.77-3.29,5.9-1.52.05-1.57-.83-1.12-2.25Z"/>
    <path class="cls-23" d="M194.3,23.8c.34,1.09-.57,1.13-1.23,1.36-.87.31-1.76.46-2.15-.67-.61-1.75-1.19-3.51-1.71-5.29-.26-.89.33-1.36,1.11-1.63.87-.29,1.87-.47,2.25.55.69,1.85,1.16,3.78,1.73,5.68Z"/>
    <path class="cls-35" d="M336.63,69.53c.87-1.13,1.69-2.3,2.62-3.39.96-1.12.93-2.1-.18-3.06,1.07-1.05,2.37-2.39,2.28.56-.1,3.01-1.93,4.89-4.71,5.89Z"/>
    <path class="cls-49" d="M261.94,90.75c-.31.97-.62,1.94-.92,2.91-.69-.86-1.61-1.72-.86-2.93.48-.77,1.2-.79,1.79.02Z"/>
    <path class="cls-52" d="M289.64,240.62c5.5-2.74,10.9-5.61,17.28-6.02,6.32-.41,11.98,1.15,17.22,4.57,8.93,7.48,11.26,17.85,12.69,28.67,1.08,8.17,1.18,8.08-7.02,7.48-7.62-.56-15.21-1.23-21.94-5.32-6.87-4.18-11.78-9.83-13.06-18.08-.88-.67-.15-1.7-.55-2.48q-1.02-5.09-7.46-5.26c.39-1.71,1.69-2.59,2.85-3.56Z"/>
    <path class="cls-51" d="M291.14,264.68c1.15,4.94,2.31,9.88,3.62,15.5-8.12-1.97-16.06-2.63-22.69-7.48-7.08-5.18-8.73-13.1-4.46-21.12.41-.77.42-2.24,1.85-1.81,1.4.43.15,1.75.6,2.56-.36,9.56,3.37,15.3,10.17,16.96.92.22,2.02,1.1,2.76.13.66-.86-.13-1.91-.51-2.81-1.56-3.66-4.11-6.53-7.16-9-1.38-1.12-2.64-2.32-3.05-4.14-.32-1.39-.18-2.36,1.64-1.64,4.45,1.17,8.79,2.63,12.56,5.4,3.37,1.34,4.12,4.33,4.68,7.44Z"/>
    <path class="cls-35" d="M273.9,251.83c-1.15.12-2.17.45-1.01,1.75,1.4,1.58,2.92,3.06,4.49,4.48,4.26,3.84,6.16,7,7.65,12.91-10.12,1.06-17.55-8.19-14.98-18.63.07,1.1.15,2.19.23,3.39,1.5-.78,1.2-2.1,1.4-3.27.27-1.63.9-2.48,2.22-.63Z"/>
    <path class="cls-35" d="M291.14,264.68c-1.29-2.65-2.84-5.14-4.68-7.44,3.28-1.63,3.77-4.32,2.83-7.53-.25-.85-.64-1.83.63-2.08.98-.19,1.05.74,1.26,1.46.73,2.49,1.8,2.48,3.08.35.65.72.67,1.59.55,2.48-1.2.53-1.96,2.17-1.54,2.66,3.36,3.91-1.02,5.85-1.97,8.63-.16.46-.11.98-.16,1.47Z"/>
    <path class="cls-19" d="M361.85,272.81c3.59,1.94,7.75,4.12,11.84,6.43,1.03.58.26,1.62.04,2.36-.36,1.21-1.24.88-2.08.43-3.72-1.97-7.43-3.96-11.17-5.88-1.18-.6-1.29-1.42-.75-2.43.31-.58.45-1.55,2.13-.91Z"/>
    <path class="cls-17" d="M321.09,314.68c.59.56,1.06.95,1.47,1.4,2.44,2.65,4.82,5.36,7.32,7.96,1.1,1.15,1.14,2.05,0,3.13-1.35,1.28-1.9.06-2.62-.75-2.47-2.79-4.96-5.58-7.42-8.38-.59-.67-1.13-1.41-.24-2.23.43-.4.93-.71,1.49-1.14Z"/>
    <path class="cls-35" d="M283.88,250.99c-2.25-.15-3.46,1.35-4.96.41-.44-.27-.15-.95.31-1.22,1.4-.84,2.7-.71,4.65.81Z"/>
    <path class="cls-4" d="M124.08,267.2c.96-4.48,1.6-9.06,2.94-13.43,6.57-21.53,30.07-27.34,46.24-11.39-.86,1.01-2.05.4-3.02.59-1.39.27-2.69.53-3.06,2.23-1.23,5.58-3.23,10.92-5.05,16.31-.82.12-1.25.74-1.71,1.33-5.68,7.42-13.65,10.45-22.54,11.55-3.82.47-7.69.51-11.5,1.05-2.29.33-3.17.27-3.16-2.57,0-2.03,1.35-3.7.87-5.68Z"/>
    <path class="cls-9" d="M168.32,265.45c3.44-9.06,10.35-13.2,20.67-14.04-5.45,6.59-12.76,11.18-13.81,19.81,11.43.84,17.53-8.34,14.92-22.83,2,.46,2.24,2.56,3.52,3.64,3.76,11.52.41,18.88-10.83,23.71-4.83,2.07-10.01,2.99-15.03,4.46-2.02.59-2.05-.38-1.77-1.89.8-4.28,1.56-8.57,2.33-12.86Z"/>
    <path class="cls-47" d="M100.68,272.01c.46-.51,1.03-.49,1.68-.52,2.75-.11,3.47-1.44,1.82-3.65-1.61-2.16-2.12-4.62-.25-6.33,1.45-1.33,4.28-1.38,5.85.19,1.88,1.88,2.23,4.41.25,6.7-.68.79-1.09,1.61-1.11,2.67-.04,1.58-.65,2.85-2.46,2.36-2.26-.61-1.97,2.48-3.77,2.35-.75-1.21-1.44-2.46-2.01-3.77Z"/>
    <path class="cls-26" d="M100.68,272.01c2.69.18,2.67,1.8,2.01,3.77-3.63,1.86-7.24,3.73-10.88,5.55-1.03.52-2.28,1.38-2.98-.39-.48-1.21-.72-2.15,1.08-2.98,3.72-1.71,7.2-3.94,10.77-5.95Z"/>
    <path class="cls-53" d="M143.11,317.09c-.39.67-.62,1.26-1.02,1.7-2.56,2.87-5.17,5.7-7.75,8.56-.63.7-1.2,1.24-2.18.48-1.03-.81-.98-1.74-.26-2.58,2.65-3.13,5.36-6.2,8.07-9.28.53-.6,1.24-.9,1.95-.29.44.38.77.9,1.19,1.41Z"/>
    <path class="cls-47" d="M87.11,276.32c-1.36,0-1.59-.78-1.86-1.44-.31-.75-.29-1.71.62-1.78,1.8-.13,2.82-.97,3.76-2.48.64-1.03,2.02-1.34,3.32-.75.79.36,1.01,1.05.91,1.85-.21,1.58-1.35,2.06-2.69,1.89-2.27-.28-3.24,1.36-4.05,2.71Z"/>
    <path class="cls-48" d="M89.37,216.73c9.17-7.14,16.64-15.75,27.77-18.91,11.36-3.22,21.64-.67,29.2,9.38.23.3.46.59.67.9,5.71,8.37,7.09,5.89-1.36,13.78-10.15,9.48-22.3,10.09-34.94,5.48-7.27-2.66-13.82-6.81-21.34-10.63Z"/>
    <path class="cls-15" d="M181.4,210.77c-7.78-.79-8.52-8.07-12.27-12.46,11.16-5.85,22.27-1.21,25.51,10.68-3.63.4-6.65-1.94-10.09-2.17-1.33-.09-2.92-1.27-3.91-.2-1.08,1.17.79,2.39.76,4.15Z"/>
    <path class="cls-49" d="M78.91,193.35c.73-2.12.82-3.86-2.23-3.7-.2-.31-.4-.63-.6-.94-.76-1.17-3.05-2.02-1.98-3.53,1.15-1.62,3.48-.99,5.16-.41,1.5.52,2.73,1.84,4.36.35.15-.14.69,0,.97.17,2.66,1.55,2.7,8.72-.06,10-1.08.5-3.2,1.88-3.45-1.14-.15-1.8-1.56-.21-2.16-.79Z"/>
    <path class="cls-42" d="M201.84,226.24c-2.97-1.7-6.02-2.95-9.4-3.28-1.23-.12-3.52.77-3.05-1.87.38-2.12-.09-4.95,3.45-5.25,5.09-.43,9.3,4.23,9,10.4Z"/>
    <path class="cls-49" d="M123.98,188.82c.85-.3,1.83-.22,1.76.37-.42,3.65,2.2,2.58,4.03,2.74.9.08,1.89.21,1.98,1.27.1,1.12-1.06,1.53-1.79,1.5-2.91-.13-5.89,1.41-8.65.07-.98-.48-3.33.18-2.93-1.94.37-2,1.55-3.7,3.95-3.88.62-.05,1.24-.09,1.65-.12Z"/>
    <path class="cls-49" d="M69,197.84c3.77-2.25,7.09-1.22,10.27-1.29.32,0,.9.58.93.92.08,1.08-.86,1.46-1.67,1.67-2.99.77-5.81,0-9.53-1.29Z"/>
    <path class="cls-49" d="M111.23,180.57c1.06.93,2.22,1.75,2.83,3.09-2.22-.27-4.68,3.47-6.7-.42-.37-.71-1.58-1.17-.87-2.16.48-.67,1.38-.44,2.09-.18.96.35,1.9.77,2.66-.34Z"/>
    <path class="cls-49" d="M95.2,207.35c-.56,1.13-.98,2.23-2.47,2.13-.21-.01-.62-.64-.54-.79.55-1.16,1.31-2.07,3.01-1.34Z"/>
    <path class="cls-49" d="M98.66,202.52c.54.07,1.04.24.94.85-.1.65-.59,1.04-1.25,1.14-.52.08-1.05-.02-1.08-.64-.05-.92.65-1.2,1.38-1.36Z"/>
    <path class="cls-52" d="M365.44,214.39c.8,1.62,2.76,1.95,3.78,3.27-2.84,1.62-5.62,3.21-8.4,4.8-2.39,2.03-5.08,3.43-8.2,3.9-.66-.01-1.27.1-1.7.68-4.41,2.22-8.76,4.71-14.03,3.2-1,0-2,.01-3,.02-4.27.89-8.37.91-11.74-2.47-5.66-2.78-10.45-6.65-14.43-11.55-.71-.87-1.44-1.29-.7-2.75,6.28-12.39,19.16-19,32.33-16.21,7.87,1.67,13.68,6.91,19.6,11.89,1.33,1.12,2.7,2.2,4.05,3.3,1.4-.11,2.08.69,2.44,1.91Z"/>
    <path class="cls-13" d="M277.98,209.89c.36-1.5,1.63-2.84.69-3.79-1.05-1.07-2.57-.08-3.83.37-3.12,1.12-6.01,3.14-9.61,2.49,2.92-11.69,11.38-15.83,23.41-11.48q-6.35,11.07-10.65,12.41Z"/>
    <path class="cls-11" d="M288.63,213.52c9.23-7.66,15.98-17.33,25.05-25.36-2.16,9.36-14.15,25.61-25.05,25.36Z"/>
    <path class="cls-56" d="M257.52,226.62c.04-5.35,2.5-9.21,6.46-10.38,2.24-.66,4.12-.37,5.63,1.63,2.41,3.19,1.93,4.82-1.98,5.19-3.68.35-6.86,1.91-10.12,3.56Z"/>
    <path class="cls-6" d="M294.32,191.74c-2.49-.37-5.31-.76-8.12-1.23-.79-.13-2.14-.34-1.39-1.53,1.33-2.12,3.12-3.99,5.7-4.48,2.72-.52,5.2.23,6.99,2.52.86,1.1,1.6,2.54.93,3.78-.74,1.37-2.46.7-4.11.95Z"/>
    <path class="cls-16" d="M379.83,193.31c-.61-2.41-.06-3.75,2.81-3.53,2.32.18,4.68.05,7.02-.01,3.15-.09,3.23,1.4,1.97,3.65-3.94.65-7.87.65-11.8-.11Z"/>
    <path class="cls-28" d="M322.15,227.79c3.75,1.59,7.8,1.81,11.74,2.47-.62,2.53-2.92,2.12-4.46,2-2.29-.18-4.57-1.03-6.78-1.8-1.38-.48-2.15-1.44-.51-2.67Z"/>
    <path class="cls-28" d="M336.89,230.24c4.83-.39,9.42-1.85,14.03-3.2.48.41,1.08,1.04.18,1.38-3.63,1.39-7.28,2.76-11,3.89-1.52.46-3-.05-3.21-2.07Z"/>
    <path class="cls-28" d="M379.83,193.31c3.93.04,7.87.07,11.8.11-.13,1.03-.66,1.62-1.74,1.28-3.12-.99-6.23-.59-9.32.09-.55.12-.81.26-1.08-.27-.26-.51-.22-.93.34-1.21Z"/>
    <path class="cls-28" d="M352.62,226.36c2.73-1.3,5.47-2.6,8.2-3.9-2.13,2.58-4.35,4.95-8.2,3.9Z"/>
    <path class="cls-28" d="M365.44,214.39c-.81-.64-1.63-1.27-2.44-1.91.41-1.08,1.18-1.83,2.69-2.76-.5,1.85,2.17,3.12-.24,4.67Z"/>
    <path class="cls-58" d="M74.74,440.47c-.23,3.19.05,6.59-1.59,9.73-.72,1.38-1.56,2.53-2.91,3.29-4.42,2.49-6.43,1.41-6.43-3.48,0-7.36.09-14.73-.04-22.09-.04-2.44.86-3.03,3.08-2.71,3.58.52,5.9,2.41,7.05,5.84,1.02,3.03.8,6.16.85,9.42Z"/>
    <path class="cls-33" d="M168.95,460.02c0,7.87.16,15.74-.05,23.61-.17,6.26-3.27,9.83-8.34,10.87-2.59.53-3.31-.28-3.3-2.77.04-8.62-.1-17.24-.12-25.86-.02-12.62.12-25.24-.05-37.85-.04-2.88,1.11-3.05,3.32-2.7,5.2.83,8.25,4.46,8.45,11.1.25,7.86.06,15.74.06,23.61,0,0,.01,0,.02,0Z"/>
    <path class="cls-24" d="M397.32,450.56c1.17,7.54,2.25,15.1,3.55,22.62.34,1.94-.16,2.31-1.96,2.4-5.46.27-5.64.16-4.89-5.29.91-6.6,1.84-13.19,2.77-19.78.17.02.35.04.52.06Z"/>
    <path class="cls-43" d="M301.69,440.22c0-4.11.16-8.24-.06-12.34-.14-2.55.93-2.87,3.06-2.64,4.65.51,7.44,2.9,8.12,7.78.74,5.32.72,10.71,0,16.03-.63,4.61-4.49,7.2-9.21,6.74-1.79-.18-1.94-1.13-1.92-2.49.03-2.24.01-4.49.01-6.73,0-2.12,0-4.24,0-6.36Z"/>
    <path class="cls-54" d="M13.75,440.02c0-4.24.12-8.48-.05-12.71-.1-2.33.79-2.7,2.85-2.43,4.91.65,7.53,2.74,8.36,7.56.96,5.56.93,11.19-.02,16.75-.73,4.28-5.52,7.07-9.73,6.1-1.64-.38-1.42-1.49-1.43-2.56-.03-4.24-.01-8.48-.01-12.71h.03Z"/>
    <path class="cls-20" d="M128.38,430.46c-.08.24-.05.46.11.66.22.46.3.94.3,1.44,0,19.28,0,38.57,0,57.85,0,.51-.09.99-.33,1.43-2.5,6.4-7.02,10.06-14.02,10.35-8.58-3.3-11.33-7.2-11.35-16.35-.03-17.24-.06-34.49.02-51.73.04-9,5.92-14.66,14.08-13.57,5.84.78,8.99,4.88,11.19,9.91Z"/>
    <path class="cls-34" d="M128.46,491.85c.01-20.24.02-40.48.03-60.73,1.05,1.01.69,2.33.69,3.53.02,17.89.02,35.79,0,53.68,0,1.2.35,2.52-.73,3.51Z"/>
    <path class="cls-10" d="M221.99,95.74c.05-7.39,3-13.77,6.85-19.86.91-1.44,1.38-.87,2.17-.01,8.69,9.47,8.97,28.34.66,37.85-1.32,1.51-1.86.84-2.82-.21-4.18-4.53-6.85-11.34-6.86-17.76Z"/>
    <path class="cls-31" d="M326.7,266.21c-16.24.76-23.1-10.63-29.31-22.74,18.13-1.38,26.49,8.57,29.31,22.74Z"/>
    <path class="cls-25" d="M133.76,266.54c5.43-18.18,14.51-25.35,30.63-24.07-3.29,3.5-5.34,7.56-7.77,11.36-5.26,8.26-13.24,11.56-22.87,12.71Z"/>
    <path class="cls-27" d="M108.46,215.33c11.64-11.07,23.57-11.22,36.63-.71-11.48,6.28-21.76,9.24-36.63.71Z"/>
    <path class="cls-37" d="M313.41,214.57c12.84-10.45,25.64-10.17,37.47,1.34-12.7,6.45-25.2,6.72-37.47-1.34Z"/>
    <path class="cls-44" d="M105.02,461.02c0-8.86,0-17.72,0-26.59,0-7.28,4.15-12.13,10.32-12.12,6.27.02,11.31,5.17,11.32,12,.02,17.97-.31,35.95-.11,53.92.07,6.14-6.6,11.95-11.31,11.83-5.61-.14-10.1-5.08-10.18-11.72-.11-9.11-.03-18.22-.03-27.33,0,0-.01,0-.02,0Z"/>
  </g>
</svg>